<?xml version="1.0" encoding="utf-8" standalone="no"?>
<!DOCTYPE svg PUBLIC "-//W3C//DTD SVG 1.1//EN"
  "http://www.w3.org/Graphics/SVG/1.1/DTD/svg11.dtd">
<svg xmlns:xlink="http://www.w3.org/1999/xlink" width="489.6pt" height="230.4pt" viewBox="0 0 489.6 230.4" xmlns="http://www.w3.org/2000/svg" version="1.1">
 <metadata>
  <rdf:RDF xmlns:dc="http://purl.org/dc/elements/1.1/" xmlns:cc="http://creativecommons.org/ns#" xmlns:rdf="http://www.w3.org/1999/02/22-rdf-syntax-ns#">
   <cc:Work>
    <dc:type rdf:resource="http://purl.org/dc/dcmitype/StillImage"/>
    <dc:date>2026-07-06T21:13:35.484726</dc:date>
    <dc:format>image/svg+xml</dc:format>
    <dc:creator>
     <cc:Agent>
      <dc:title>Matplotlib v3.9.4, https://matplotlib.org/</dc:title>
     </cc:Agent>
    </dc:creator>
   </cc:Work>
  </rdf:RDF>
 </metadata>
 <defs>
  <style type="text/css">*{stroke-linejoin: round; stroke-linecap: butt}</style>
 </defs>
 <g id="figure_1">
  <g id="patch_1">
   <path d="M 0 230.4 
L 489.6 230.4 
L 489.6 0 
L 0 0 
z
" style="fill: #ffffff"/>
  </g>
  <g id="axes_1">
   <g id="patch_2">
    <path d="M 51.11 192.848 
L 227.494215 192.848 
L 227.494215 39 
L 51.11 39 
z
" style="fill: #ffffff"/>
   </g>
   <g id="matplotlib.axis_1">
    <g id="xtick_1">
     <g id="line2d_1">
      <defs>
       <path id="m86dc47a376" d="M 0 0 
L 0 3.5 
" style="stroke: #000000; stroke-width: 0.8"/>
      </defs>
      <g>
       <use xlink:href="#m86dc47a376" x="59.127464" y="192.848" style="stroke: #000000; stroke-width: 0.8"/>
      </g>
     </g>
     <g id="text_1">
      <!-- Caudoputamen -->
      <g transform="translate(28.374964 205.92675) scale(0.08 -0.08)">
       <defs>
        <path id="DejaVuSans-43" d="M 4122 4306 
L 4122 3641 
Q 3803 3938 3442 4084 
Q 3081 4231 2675 4231 
Q 1875 4231 1450 3742 
Q 1025 3253 1025 2328 
Q 1025 1406 1450 917 
Q 1875 428 2675 428 
Q 3081 428 3442 575 
Q 3803 722 4122 1019 
L 4122 359 
Q 3791 134 3420 21 
Q 3050 -91 2638 -91 
Q 1578 -91 968 557 
Q 359 1206 359 2328 
Q 359 3453 968 4101 
Q 1578 4750 2638 4750 
Q 3056 4750 3426 4639 
Q 3797 4528 4122 4306 
z
" transform="scale(0.015625)"/>
        <path id="DejaVuSans-61" d="M 2194 1759 
Q 1497 1759 1228 1600 
Q 959 1441 959 1056 
Q 959 750 1161 570 
Q 1363 391 1709 391 
Q 2188 391 2477 730 
Q 2766 1069 2766 1631 
L 2766 1759 
L 2194 1759 
z
M 3341 1997 
L 3341 0 
L 2766 0 
L 2766 531 
Q 2569 213 2275 61 
Q 1981 -91 1556 -91 
Q 1019 -91 701 211 
Q 384 513 384 1019 
Q 384 1609 779 1909 
Q 1175 2209 1959 2209 
L 2766 2209 
L 2766 2266 
Q 2766 2663 2505 2880 
Q 2244 3097 1772 3097 
Q 1472 3097 1187 3025 
Q 903 2953 641 2809 
L 641 3341 
Q 956 3463 1253 3523 
Q 1550 3584 1831 3584 
Q 2591 3584 2966 3190 
Q 3341 2797 3341 1997 
z
" transform="scale(0.015625)"/>
        <path id="DejaVuSans-75" d="M 544 1381 
L 544 3500 
L 1119 3500 
L 1119 1403 
Q 1119 906 1312 657 
Q 1506 409 1894 409 
Q 2359 409 2629 706 
Q 2900 1003 2900 1516 
L 2900 3500 
L 3475 3500 
L 3475 0 
L 2900 0 
L 2900 538 
Q 2691 219 2414 64 
Q 2138 -91 1772 -91 
Q 1169 -91 856 284 
Q 544 659 544 1381 
z
M 1991 3584 
L 1991 3584 
z
" transform="scale(0.015625)"/>
        <path id="DejaVuSans-64" d="M 2906 2969 
L 2906 4863 
L 3481 4863 
L 3481 0 
L 2906 0 
L 2906 525 
Q 2725 213 2448 61 
Q 2172 -91 1784 -91 
Q 1150 -91 751 415 
Q 353 922 353 1747 
Q 353 2572 751 3078 
Q 1150 3584 1784 3584 
Q 2172 3584 2448 3432 
Q 2725 3281 2906 2969 
z
M 947 1747 
Q 947 1113 1208 752 
Q 1469 391 1925 391 
Q 2381 391 2643 752 
Q 2906 1113 2906 1747 
Q 2906 2381 2643 2742 
Q 2381 3103 1925 3103 
Q 1469 3103 1208 2742 
Q 947 2381 947 1747 
z
" transform="scale(0.015625)"/>
        <path id="DejaVuSans-6f" d="M 1959 3097 
Q 1497 3097 1228 2736 
Q 959 2375 959 1747 
Q 959 1119 1226 758 
Q 1494 397 1959 397 
Q 2419 397 2687 759 
Q 2956 1122 2956 1747 
Q 2956 2369 2687 2733 
Q 2419 3097 1959 3097 
z
M 1959 3584 
Q 2709 3584 3137 3096 
Q 3566 2609 3566 1747 
Q 3566 888 3137 398 
Q 2709 -91 1959 -91 
Q 1206 -91 779 398 
Q 353 888 353 1747 
Q 353 2609 779 3096 
Q 1206 3584 1959 3584 
z
" transform="scale(0.015625)"/>
        <path id="DejaVuSans-70" d="M 1159 525 
L 1159 -1331 
L 581 -1331 
L 581 3500 
L 1159 3500 
L 1159 2969 
Q 1341 3281 1617 3432 
Q 1894 3584 2278 3584 
Q 2916 3584 3314 3078 
Q 3713 2572 3713 1747 
Q 3713 922 3314 415 
Q 2916 -91 2278 -91 
Q 1894 -91 1617 61 
Q 1341 213 1159 525 
z
M 3116 1747 
Q 3116 2381 2855 2742 
Q 2594 3103 2138 3103 
Q 1681 3103 1420 2742 
Q 1159 2381 1159 1747 
Q 1159 1113 1420 752 
Q 1681 391 2138 391 
Q 2594 391 2855 752 
Q 3116 1113 3116 1747 
z
" transform="scale(0.015625)"/>
        <path id="DejaVuSans-74" d="M 1172 4494 
L 1172 3500 
L 2356 3500 
L 2356 3053 
L 1172 3053 
L 1172 1153 
Q 1172 725 1289 603 
Q 1406 481 1766 481 
L 2356 481 
L 2356 0 
L 1766 0 
Q 1100 0 847 248 
Q 594 497 594 1153 
L 594 3053 
L 172 3053 
L 172 3500 
L 594 3500 
L 594 4494 
L 1172 4494 
z
" transform="scale(0.015625)"/>
        <path id="DejaVuSans-6d" d="M 3328 2828 
Q 3544 3216 3844 3400 
Q 4144 3584 4550 3584 
Q 5097 3584 5394 3201 
Q 5691 2819 5691 2113 
L 5691 0 
L 5113 0 
L 5113 2094 
Q 5113 2597 4934 2840 
Q 4756 3084 4391 3084 
Q 3944 3084 3684 2787 
Q 3425 2491 3425 1978 
L 3425 0 
L 2847 0 
L 2847 2094 
Q 2847 2600 2669 2842 
Q 2491 3084 2119 3084 
Q 1678 3084 1418 2786 
Q 1159 2488 1159 1978 
L 1159 0 
L 581 0 
L 581 3500 
L 1159 3500 
L 1159 2956 
Q 1356 3278 1631 3431 
Q 1906 3584 2284 3584 
Q 2666 3584 2933 3390 
Q 3200 3197 3328 2828 
z
" transform="scale(0.015625)"/>
        <path id="DejaVuSans-65" d="M 3597 1894 
L 3597 1613 
L 953 1613 
Q 991 1019 1311 708 
Q 1631 397 2203 397 
Q 2534 397 2845 478 
Q 3156 559 3463 722 
L 3463 178 
Q 3153 47 2828 -22 
Q 2503 -91 2169 -91 
Q 1331 -91 842 396 
Q 353 884 353 1716 
Q 353 2575 817 3079 
Q 1281 3584 2069 3584 
Q 2775 3584 3186 3129 
Q 3597 2675 3597 1894 
z
M 3022 2063 
Q 3016 2534 2758 2815 
Q 2500 3097 2075 3097 
Q 1594 3097 1305 2825 
Q 1016 2553 972 2059 
L 3022 2063 
z
" transform="scale(0.015625)"/>
        <path id="DejaVuSans-6e" d="M 3513 2113 
L 3513 0 
L 2938 0 
L 2938 2094 
Q 2938 2591 2744 2837 
Q 2550 3084 2163 3084 
Q 1697 3084 1428 2787 
Q 1159 2491 1159 1978 
L 1159 0 
L 581 0 
L 581 3500 
L 1159 3500 
L 1159 2956 
Q 1366 3272 1645 3428 
Q 1925 3584 2291 3584 
Q 2894 3584 3203 3211 
Q 3513 2838 3513 2113 
z
" transform="scale(0.015625)"/>
       </defs>
       <use xlink:href="#DejaVuSans-43"/>
       <use xlink:href="#DejaVuSans-61" x="69.824219"/>
       <use xlink:href="#DejaVuSans-75" x="131.103516"/>
       <use xlink:href="#DejaVuSans-64" x="194.482422"/>
       <use xlink:href="#DejaVuSans-6f" x="257.958984"/>
       <use xlink:href="#DejaVuSans-70" x="319.140625"/>
       <use xlink:href="#DejaVuSans-75" x="382.617188"/>
       <use xlink:href="#DejaVuSans-74" x="445.996094"/>
       <use xlink:href="#DejaVuSans-61" x="485.205078"/>
       <use xlink:href="#DejaVuSans-6d" x="546.484375"/>
       <use xlink:href="#DejaVuSans-65" x="643.896484"/>
       <use xlink:href="#DejaVuSans-6e" x="705.419922"/>
      </g>
      <!-- (dorsal) -->
      <g transform="translate(43.728714 214.885) scale(0.08 -0.08)">
       <defs>
        <path id="DejaVuSans-28" d="M 1984 4856 
Q 1566 4138 1362 3434 
Q 1159 2731 1159 2009 
Q 1159 1288 1364 580 
Q 1569 -128 1984 -844 
L 1484 -844 
Q 1016 -109 783 600 
Q 550 1309 550 2009 
Q 550 2706 781 3412 
Q 1013 4119 1484 4856 
L 1984 4856 
z
" transform="scale(0.015625)"/>
        <path id="DejaVuSans-72" d="M 2631 2963 
Q 2534 3019 2420 3045 
Q 2306 3072 2169 3072 
Q 1681 3072 1420 2755 
Q 1159 2438 1159 1844 
L 1159 0 
L 581 0 
L 581 3500 
L 1159 3500 
L 1159 2956 
Q 1341 3275 1631 3429 
Q 1922 3584 2338 3584 
Q 2397 3584 2469 3576 
Q 2541 3569 2628 3553 
L 2631 2963 
z
" transform="scale(0.015625)"/>
        <path id="DejaVuSans-73" d="M 2834 3397 
L 2834 2853 
Q 2591 2978 2328 3040 
Q 2066 3103 1784 3103 
Q 1356 3103 1142 2972 
Q 928 2841 928 2578 
Q 928 2378 1081 2264 
Q 1234 2150 1697 2047 
L 1894 2003 
Q 2506 1872 2764 1633 
Q 3022 1394 3022 966 
Q 3022 478 2636 193 
Q 2250 -91 1575 -91 
Q 1294 -91 989 -36 
Q 684 19 347 128 
L 347 722 
Q 666 556 975 473 
Q 1284 391 1588 391 
Q 1994 391 2212 530 
Q 2431 669 2431 922 
Q 2431 1156 2273 1281 
Q 2116 1406 1581 1522 
L 1381 1569 
Q 847 1681 609 1914 
Q 372 2147 372 2553 
Q 372 3047 722 3315 
Q 1072 3584 1716 3584 
Q 2034 3584 2315 3537 
Q 2597 3491 2834 3397 
z
" transform="scale(0.015625)"/>
        <path id="DejaVuSans-6c" d="M 603 4863 
L 1178 4863 
L 1178 0 
L 603 0 
L 603 4863 
z
" transform="scale(0.015625)"/>
        <path id="DejaVuSans-29" d="M 513 4856 
L 1013 4856 
Q 1481 4119 1714 3412 
Q 1947 2706 1947 2009 
Q 1947 1309 1714 600 
Q 1481 -109 1013 -844 
L 513 -844 
Q 928 -128 1133 580 
Q 1338 1288 1338 2009 
Q 1338 2731 1133 3434 
Q 928 4138 513 4856 
z
" transform="scale(0.015625)"/>
       </defs>
       <use xlink:href="#DejaVuSans-28"/>
       <use xlink:href="#DejaVuSans-64" x="39.013672"/>
       <use xlink:href="#DejaVuSans-6f" x="102.490234"/>
       <use xlink:href="#DejaVuSans-72" x="163.671875"/>
       <use xlink:href="#DejaVuSans-73" x="204.785156"/>
       <use xlink:href="#DejaVuSans-61" x="256.884766"/>
       <use xlink:href="#DejaVuSans-6c" x="318.164062"/>
       <use xlink:href="#DejaVuSans-29" x="345.947266"/>
      </g>
     </g>
    </g>
    <g id="xtick_2">
     <g id="line2d_2">
      <g>
       <use xlink:href="#m86dc47a376" x="139.302107" y="192.848" style="stroke: #000000; stroke-width: 0.8"/>
      </g>
     </g>
     <g id="text_2">
      <!-- Accumbens -->
      <g transform="translate(116.186482 205.92675) scale(0.08 -0.08)">
       <defs>
        <path id="DejaVuSans-41" d="M 2188 4044 
L 1331 1722 
L 3047 1722 
L 2188 4044 
z
M 1831 4666 
L 2547 4666 
L 4325 0 
L 3669 0 
L 3244 1197 
L 1141 1197 
L 716 0 
L 50 0 
L 1831 4666 
z
" transform="scale(0.015625)"/>
        <path id="DejaVuSans-63" d="M 3122 3366 
L 3122 2828 
Q 2878 2963 2633 3030 
Q 2388 3097 2138 3097 
Q 1578 3097 1268 2742 
Q 959 2388 959 1747 
Q 959 1106 1268 751 
Q 1578 397 2138 397 
Q 2388 397 2633 464 
Q 2878 531 3122 666 
L 3122 134 
Q 2881 22 2623 -34 
Q 2366 -91 2075 -91 
Q 1284 -91 818 406 
Q 353 903 353 1747 
Q 353 2603 823 3093 
Q 1294 3584 2113 3584 
Q 2378 3584 2631 3529 
Q 2884 3475 3122 3366 
z
" transform="scale(0.015625)"/>
        <path id="DejaVuSans-62" d="M 3116 1747 
Q 3116 2381 2855 2742 
Q 2594 3103 2138 3103 
Q 1681 3103 1420 2742 
Q 1159 2381 1159 1747 
Q 1159 1113 1420 752 
Q 1681 391 2138 391 
Q 2594 391 2855 752 
Q 3116 1113 3116 1747 
z
M 1159 2969 
Q 1341 3281 1617 3432 
Q 1894 3584 2278 3584 
Q 2916 3584 3314 3078 
Q 3713 2572 3713 1747 
Q 3713 922 3314 415 
Q 2916 -91 2278 -91 
Q 1894 -91 1617 61 
Q 1341 213 1159 525 
L 1159 0 
L 581 0 
L 581 4863 
L 1159 4863 
L 1159 2969 
z
" transform="scale(0.015625)"/>
       </defs>
       <use xlink:href="#DejaVuSans-41"/>
       <use xlink:href="#DejaVuSans-63" x="66.658203"/>
       <use xlink:href="#DejaVuSans-63" x="121.638672"/>
       <use xlink:href="#DejaVuSans-75" x="176.619141"/>
       <use xlink:href="#DejaVuSans-6d" x="239.998047"/>
       <use xlink:href="#DejaVuSans-62" x="337.410156"/>
       <use xlink:href="#DejaVuSans-65" x="400.886719"/>
       <use xlink:href="#DejaVuSans-6e" x="462.410156"/>
       <use xlink:href="#DejaVuSans-73" x="525.789062"/>
      </g>
      <!-- (ventral) -->
      <g transform="translate(122.042107 214.885) scale(0.08 -0.08)">
       <defs>
        <path id="DejaVuSans-76" d="M 191 3500 
L 800 3500 
L 1894 563 
L 2988 3500 
L 3597 3500 
L 2284 0 
L 1503 0 
L 191 3500 
z
" transform="scale(0.015625)"/>
       </defs>
       <use xlink:href="#DejaVuSans-28"/>
       <use xlink:href="#DejaVuSans-76" x="39.013672"/>
       <use xlink:href="#DejaVuSans-65" x="98.193359"/>
       <use xlink:href="#DejaVuSans-6e" x="159.716797"/>
       <use xlink:href="#DejaVuSans-74" x="223.095703"/>
       <use xlink:href="#DejaVuSans-72" x="262.304688"/>
       <use xlink:href="#DejaVuSans-61" x="303.417969"/>
       <use xlink:href="#DejaVuSans-6c" x="364.697266"/>
       <use xlink:href="#DejaVuSans-29" x="392.480469"/>
      </g>
     </g>
    </g>
    <g id="xtick_3">
     <g id="line2d_3">
      <g>
       <use xlink:href="#m86dc47a376" x="219.476751" y="192.848" style="stroke: #000000; stroke-width: 0.8"/>
      </g>
     </g>
     <g id="text_3">
      <!-- Olf. tubercle -->
      <g transform="translate(195.126126 205.92675) scale(0.08 -0.08)">
       <defs>
        <path id="DejaVuSans-4f" d="M 2522 4238 
Q 1834 4238 1429 3725 
Q 1025 3213 1025 2328 
Q 1025 1447 1429 934 
Q 1834 422 2522 422 
Q 3209 422 3611 934 
Q 4013 1447 4013 2328 
Q 4013 3213 3611 3725 
Q 3209 4238 2522 4238 
z
M 2522 4750 
Q 3503 4750 4090 4092 
Q 4678 3434 4678 2328 
Q 4678 1225 4090 567 
Q 3503 -91 2522 -91 
Q 1538 -91 948 565 
Q 359 1222 359 2328 
Q 359 3434 948 4092 
Q 1538 4750 2522 4750 
z
" transform="scale(0.015625)"/>
        <path id="DejaVuSans-66" d="M 2375 4863 
L 2375 4384 
L 1825 4384 
Q 1516 4384 1395 4259 
Q 1275 4134 1275 3809 
L 1275 3500 
L 2222 3500 
L 2222 3053 
L 1275 3053 
L 1275 0 
L 697 0 
L 697 3053 
L 147 3053 
L 147 3500 
L 697 3500 
L 697 3744 
Q 697 4328 969 4595 
Q 1241 4863 1831 4863 
L 2375 4863 
z
" transform="scale(0.015625)"/>
        <path id="DejaVuSans-2e" d="M 684 794 
L 1344 794 
L 1344 0 
L 684 0 
L 684 794 
z
" transform="scale(0.015625)"/>
        <path id="DejaVuSans-20" transform="scale(0.015625)"/>
       </defs>
       <use xlink:href="#DejaVuSans-4f"/>
       <use xlink:href="#DejaVuSans-6c" x="78.710938"/>
       <use xlink:href="#DejaVuSans-66" x="106.494141"/>
       <use xlink:href="#DejaVuSans-2e" x="134.449219"/>
       <use xlink:href="#DejaVuSans-20" x="166.236328"/>
       <use xlink:href="#DejaVuSans-74" x="198.023438"/>
       <use xlink:href="#DejaVuSans-75" x="237.232422"/>
       <use xlink:href="#DejaVuSans-62" x="300.611328"/>
       <use xlink:href="#DejaVuSans-65" x="364.087891"/>
       <use xlink:href="#DejaVuSans-72" x="425.611328"/>
       <use xlink:href="#DejaVuSans-63" x="464.474609"/>
       <use xlink:href="#DejaVuSans-6c" x="519.455078"/>
       <use xlink:href="#DejaVuSans-65" x="547.238281"/>
      </g>
      <!-- (most ventral) -->
      <g transform="translate(190.949876 214.885) scale(0.08 -0.08)">
       <use xlink:href="#DejaVuSans-28"/>
       <use xlink:href="#DejaVuSans-6d" x="39.013672"/>
       <use xlink:href="#DejaVuSans-6f" x="136.425781"/>
       <use xlink:href="#DejaVuSans-73" x="197.607422"/>
       <use xlink:href="#DejaVuSans-74" x="249.707031"/>
       <use xlink:href="#DejaVuSans-20" x="288.916016"/>
       <use xlink:href="#DejaVuSans-76" x="320.703125"/>
       <use xlink:href="#DejaVuSans-65" x="379.882812"/>
       <use xlink:href="#DejaVuSans-6e" x="441.40625"/>
       <use xlink:href="#DejaVuSans-74" x="504.785156"/>
       <use xlink:href="#DejaVuSans-72" x="543.994141"/>
       <use xlink:href="#DejaVuSans-61" x="585.107422"/>
       <use xlink:href="#DejaVuSans-6c" x="646.386719"/>
       <use xlink:href="#DejaVuSans-29" x="674.169922"/>
      </g>
     </g>
    </g>
   </g>
   <g id="matplotlib.axis_2">
    <g id="ytick_1">
     <g id="line2d_4">
      <defs>
       <path id="m050a7cfe24" d="M 0 0 
L -3.5 0 
" style="stroke: #000000; stroke-width: 0.8"/>
      </defs>
      <g>
       <use xlink:href="#m050a7cfe24" x="51.11" y="180.467604" style="stroke: #000000; stroke-width: 0.8"/>
      </g>
     </g>
     <g id="text_4">
      <!-- 5.0 -->
      <g transform="translate(31.3875 183.506979) scale(0.08 -0.08)">
       <defs>
        <path id="DejaVuSans-35" d="M 691 4666 
L 3169 4666 
L 3169 4134 
L 1269 4134 
L 1269 2991 
Q 1406 3038 1543 3061 
Q 1681 3084 1819 3084 
Q 2600 3084 3056 2656 
Q 3513 2228 3513 1497 
Q 3513 744 3044 326 
Q 2575 -91 1722 -91 
Q 1428 -91 1123 -41 
Q 819 9 494 109 
L 494 744 
Q 775 591 1075 516 
Q 1375 441 1709 441 
Q 2250 441 2565 725 
Q 2881 1009 2881 1497 
Q 2881 1984 2565 2268 
Q 2250 2553 1709 2553 
Q 1456 2553 1204 2497 
Q 953 2441 691 2322 
L 691 4666 
z
" transform="scale(0.015625)"/>
        <path id="DejaVuSans-30" d="M 2034 4250 
Q 1547 4250 1301 3770 
Q 1056 3291 1056 2328 
Q 1056 1369 1301 889 
Q 1547 409 2034 409 
Q 2525 409 2770 889 
Q 3016 1369 3016 2328 
Q 3016 3291 2770 3770 
Q 2525 4250 2034 4250 
z
M 2034 4750 
Q 2819 4750 3233 4129 
Q 3647 3509 3647 2328 
Q 3647 1150 3233 529 
Q 2819 -91 2034 -91 
Q 1250 -91 836 529 
Q 422 1150 422 2328 
Q 422 3509 836 4129 
Q 1250 4750 2034 4750 
z
" transform="scale(0.015625)"/>
       </defs>
       <use xlink:href="#DejaVuSans-35"/>
       <use xlink:href="#DejaVuSans-2e" x="63.623047"/>
       <use xlink:href="#DejaVuSans-30" x="95.410156"/>
      </g>
     </g>
    </g>
    <g id="ytick_2">
     <g id="line2d_5">
      <g>
       <use xlink:href="#m050a7cfe24" x="51.11" y="161.851916" style="stroke: #000000; stroke-width: 0.8"/>
      </g>
     </g>
     <g id="text_5">
      <!-- 7.5 -->
      <g transform="translate(31.3875 164.891291) scale(0.08 -0.08)">
       <defs>
        <path id="DejaVuSans-37" d="M 525 4666 
L 3525 4666 
L 3525 4397 
L 1831 0 
L 1172 0 
L 2766 4134 
L 525 4134 
L 525 4666 
z
" transform="scale(0.015625)"/>
       </defs>
       <use xlink:href="#DejaVuSans-37"/>
       <use xlink:href="#DejaVuSans-2e" x="63.623047"/>
       <use xlink:href="#DejaVuSans-35" x="95.410156"/>
      </g>
     </g>
    </g>
    <g id="ytick_3">
     <g id="line2d_6">
      <g>
       <use xlink:href="#m050a7cfe24" x="51.11" y="143.236229" style="stroke: #000000; stroke-width: 0.8"/>
      </g>
     </g>
     <g id="text_6">
      <!-- 10.0 -->
      <g transform="translate(26.2975 146.275604) scale(0.08 -0.08)">
       <defs>
        <path id="DejaVuSans-31" d="M 794 531 
L 1825 531 
L 1825 4091 
L 703 3866 
L 703 4441 
L 1819 4666 
L 2450 4666 
L 2450 531 
L 3481 531 
L 3481 0 
L 794 0 
L 794 531 
z
" transform="scale(0.015625)"/>
       </defs>
       <use xlink:href="#DejaVuSans-31"/>
       <use xlink:href="#DejaVuSans-30" x="63.623047"/>
       <use xlink:href="#DejaVuSans-2e" x="127.246094"/>
       <use xlink:href="#DejaVuSans-30" x="159.033203"/>
      </g>
     </g>
    </g>
    <g id="ytick_4">
     <g id="line2d_7">
      <g>
       <use xlink:href="#m050a7cfe24" x="51.11" y="124.620542" style="stroke: #000000; stroke-width: 0.8"/>
      </g>
     </g>
     <g id="text_7">
      <!-- 12.5 -->
      <g transform="translate(26.2975 127.659917) scale(0.08 -0.08)">
       <defs>
        <path id="DejaVuSans-32" d="M 1228 531 
L 3431 531 
L 3431 0 
L 469 0 
L 469 531 
Q 828 903 1448 1529 
Q 2069 2156 2228 2338 
Q 2531 2678 2651 2914 
Q 2772 3150 2772 3378 
Q 2772 3750 2511 3984 
Q 2250 4219 1831 4219 
Q 1534 4219 1204 4116 
Q 875 4013 500 3803 
L 500 4441 
Q 881 4594 1212 4672 
Q 1544 4750 1819 4750 
Q 2544 4750 2975 4387 
Q 3406 4025 3406 3419 
Q 3406 3131 3298 2873 
Q 3191 2616 2906 2266 
Q 2828 2175 2409 1742 
Q 1991 1309 1228 531 
z
" transform="scale(0.015625)"/>
       </defs>
       <use xlink:href="#DejaVuSans-31"/>
       <use xlink:href="#DejaVuSans-32" x="63.623047"/>
       <use xlink:href="#DejaVuSans-2e" x="127.246094"/>
       <use xlink:href="#DejaVuSans-35" x="159.033203"/>
      </g>
     </g>
    </g>
    <g id="ytick_5">
     <g id="line2d_8">
      <g>
       <use xlink:href="#m050a7cfe24" x="51.11" y="106.004854" style="stroke: #000000; stroke-width: 0.8"/>
      </g>
     </g>
     <g id="text_8">
      <!-- 15.0 -->
      <g transform="translate(26.2975 109.044229) scale(0.08 -0.08)">
       <use xlink:href="#DejaVuSans-31"/>
       <use xlink:href="#DejaVuSans-35" x="63.623047"/>
       <use xlink:href="#DejaVuSans-2e" x="127.246094"/>
       <use xlink:href="#DejaVuSans-30" x="159.033203"/>
      </g>
     </g>
    </g>
    <g id="ytick_6">
     <g id="line2d_9">
      <g>
       <use xlink:href="#m050a7cfe24" x="51.11" y="87.389167" style="stroke: #000000; stroke-width: 0.8"/>
      </g>
     </g>
     <g id="text_9">
      <!-- 17.5 -->
      <g transform="translate(26.2975 90.428542) scale(0.08 -0.08)">
       <use xlink:href="#DejaVuSans-31"/>
       <use xlink:href="#DejaVuSans-37" x="63.623047"/>
       <use xlink:href="#DejaVuSans-2e" x="127.246094"/>
       <use xlink:href="#DejaVuSans-35" x="159.033203"/>
      </g>
     </g>
    </g>
    <g id="ytick_7">
     <g id="line2d_10">
      <g>
       <use xlink:href="#m050a7cfe24" x="51.11" y="68.77348" style="stroke: #000000; stroke-width: 0.8"/>
      </g>
     </g>
     <g id="text_10">
      <!-- 20.0 -->
      <g transform="translate(26.2975 71.812855) scale(0.08 -0.08)">
       <use xlink:href="#DejaVuSans-32"/>
       <use xlink:href="#DejaVuSans-30" x="63.623047"/>
       <use xlink:href="#DejaVuSans-2e" x="127.246094"/>
       <use xlink:href="#DejaVuSans-30" x="159.033203"/>
      </g>
     </g>
    </g>
    <g id="ytick_8">
     <g id="line2d_11">
      <g>
       <use xlink:href="#m050a7cfe24" x="51.11" y="50.157792" style="stroke: #000000; stroke-width: 0.8"/>
      </g>
     </g>
     <g id="text_11">
      <!-- 22.5 -->
      <g transform="translate(26.2975 53.197167) scale(0.08 -0.08)">
       <use xlink:href="#DejaVuSans-32"/>
       <use xlink:href="#DejaVuSans-32" x="63.623047"/>
       <use xlink:href="#DejaVuSans-2e" x="127.246094"/>
       <use xlink:href="#DejaVuSans-35" x="159.033203"/>
      </g>
     </g>
    </g>
    <g id="text_12">
     <!-- Expression energy (ISH) -->
     <g transform="translate(20.63375 163.96525) rotate(-90) scale(0.08 -0.08)">
      <defs>
       <path id="DejaVuSans-45" d="M 628 4666 
L 3578 4666 
L 3578 4134 
L 1259 4134 
L 1259 2753 
L 3481 2753 
L 3481 2222 
L 1259 2222 
L 1259 531 
L 3634 531 
L 3634 0 
L 628 0 
L 628 4666 
z
" transform="scale(0.015625)"/>
       <path id="DejaVuSans-78" d="M 3513 3500 
L 2247 1797 
L 3578 0 
L 2900 0 
L 1881 1375 
L 863 0 
L 184 0 
L 1544 1831 
L 300 3500 
L 978 3500 
L 1906 2253 
L 2834 3500 
L 3513 3500 
z
" transform="scale(0.015625)"/>
       <path id="DejaVuSans-69" d="M 603 3500 
L 1178 3500 
L 1178 0 
L 603 0 
L 603 3500 
z
M 603 4863 
L 1178 4863 
L 1178 4134 
L 603 4134 
L 603 4863 
z
" transform="scale(0.015625)"/>
       <path id="DejaVuSans-67" d="M 2906 1791 
Q 2906 2416 2648 2759 
Q 2391 3103 1925 3103 
Q 1463 3103 1205 2759 
Q 947 2416 947 1791 
Q 947 1169 1205 825 
Q 1463 481 1925 481 
Q 2391 481 2648 825 
Q 2906 1169 2906 1791 
z
M 3481 434 
Q 3481 -459 3084 -895 
Q 2688 -1331 1869 -1331 
Q 1566 -1331 1297 -1286 
Q 1028 -1241 775 -1147 
L 775 -588 
Q 1028 -725 1275 -790 
Q 1522 -856 1778 -856 
Q 2344 -856 2625 -561 
Q 2906 -266 2906 331 
L 2906 616 
Q 2728 306 2450 153 
Q 2172 0 1784 0 
Q 1141 0 747 490 
Q 353 981 353 1791 
Q 353 2603 747 3093 
Q 1141 3584 1784 3584 
Q 2172 3584 2450 3431 
Q 2728 3278 2906 2969 
L 2906 3500 
L 3481 3500 
L 3481 434 
z
" transform="scale(0.015625)"/>
       <path id="DejaVuSans-79" d="M 2059 -325 
Q 1816 -950 1584 -1140 
Q 1353 -1331 966 -1331 
L 506 -1331 
L 506 -850 
L 844 -850 
Q 1081 -850 1212 -737 
Q 1344 -625 1503 -206 
L 1606 56 
L 191 3500 
L 800 3500 
L 1894 763 
L 2988 3500 
L 3597 3500 
L 2059 -325 
z
" transform="scale(0.015625)"/>
       <path id="DejaVuSans-49" d="M 628 4666 
L 1259 4666 
L 1259 0 
L 628 0 
L 628 4666 
z
" transform="scale(0.015625)"/>
       <path id="DejaVuSans-53" d="M 3425 4513 
L 3425 3897 
Q 3066 4069 2747 4153 
Q 2428 4238 2131 4238 
Q 1616 4238 1336 4038 
Q 1056 3838 1056 3469 
Q 1056 3159 1242 3001 
Q 1428 2844 1947 2747 
L 2328 2669 
Q 3034 2534 3370 2195 
Q 3706 1856 3706 1288 
Q 3706 609 3251 259 
Q 2797 -91 1919 -91 
Q 1588 -91 1214 -16 
Q 841 59 441 206 
L 441 856 
Q 825 641 1194 531 
Q 1563 422 1919 422 
Q 2459 422 2753 634 
Q 3047 847 3047 1241 
Q 3047 1584 2836 1778 
Q 2625 1972 2144 2069 
L 1759 2144 
Q 1053 2284 737 2584 
Q 422 2884 422 3419 
Q 422 4038 858 4394 
Q 1294 4750 2059 4750 
Q 2388 4750 2728 4690 
Q 3069 4631 3425 4513 
z
" transform="scale(0.015625)"/>
       <path id="DejaVuSans-48" d="M 628 4666 
L 1259 4666 
L 1259 2753 
L 3553 2753 
L 3553 4666 
L 4184 4666 
L 4184 0 
L 3553 0 
L 3553 2222 
L 1259 2222 
L 1259 0 
L 628 0 
L 628 4666 
z
" transform="scale(0.015625)"/>
      </defs>
      <use xlink:href="#DejaVuSans-45"/>
      <use xlink:href="#DejaVuSans-78" x="63.183594"/>
      <use xlink:href="#DejaVuSans-70" x="122.363281"/>
      <use xlink:href="#DejaVuSans-72" x="185.839844"/>
      <use xlink:href="#DejaVuSans-65" x="224.703125"/>
      <use xlink:href="#DejaVuSans-73" x="286.226562"/>
      <use xlink:href="#DejaVuSans-73" x="338.326172"/>
      <use xlink:href="#DejaVuSans-69" x="390.425781"/>
      <use xlink:href="#DejaVuSans-6f" x="418.208984"/>
      <use xlink:href="#DejaVuSans-6e" x="479.390625"/>
      <use xlink:href="#DejaVuSans-20" x="542.769531"/>
      <use xlink:href="#DejaVuSans-65" x="574.556641"/>
      <use xlink:href="#DejaVuSans-6e" x="636.080078"/>
      <use xlink:href="#DejaVuSans-65" x="699.458984"/>
      <use xlink:href="#DejaVuSans-72" x="760.982422"/>
      <use xlink:href="#DejaVuSans-67" x="800.345703"/>
      <use xlink:href="#DejaVuSans-79" x="863.822266"/>
      <use xlink:href="#DejaVuSans-20" x="923.001953"/>
      <use xlink:href="#DejaVuSans-28" x="954.789062"/>
      <use xlink:href="#DejaVuSans-49" x="993.802734"/>
      <use xlink:href="#DejaVuSans-53" x="1023.294922"/>
      <use xlink:href="#DejaVuSans-48" x="1086.771484"/>
      <use xlink:href="#DejaVuSans-29" x="1161.966797"/>
     </g>
    </g>
   </g>
   <g id="line2d_12">
    <path d="M 59.127464 57.496841 
L 139.302107 64.611012 
L 219.476751 83.80453 
" clip-path="url(#paa6ce20cd8)" style="fill: none; stroke: #e07b39; stroke-width: 1.8; stroke-linecap: square"/>
    <defs>
     <path id="m8df770bf8c" d="M 0 3 
C 0.795609 3 1.55874 2.683901 2.12132 2.12132 
C 2.683901 1.55874 3 0.795609 3 0 
C 3 -0.795609 2.683901 -1.55874 2.12132 -2.12132 
C 1.55874 -2.683901 0.795609 -3 0 -3 
C -0.795609 -3 -1.55874 -2.683901 -2.12132 -2.12132 
C -2.683901 -1.55874 -3 -0.795609 -3 0 
C -3 0.795609 -2.683901 1.55874 -2.12132 2.12132 
C -1.55874 2.683901 -0.795609 3 0 3 
z
" style="stroke: #e07b39"/>
    </defs>
    <g clip-path="url(#paa6ce20cd8)">
     <use xlink:href="#m8df770bf8c" x="59.127464" y="57.496841" style="fill: #e07b39; stroke: #e07b39"/>
     <use xlink:href="#m8df770bf8c" x="139.302107" y="64.611012" style="fill: #e07b39; stroke: #e07b39"/>
     <use xlink:href="#m8df770bf8c" x="219.476751" y="83.80453" style="fill: #e07b39; stroke: #e07b39"/>
    </g>
   </g>
   <g id="line2d_13">
    <path d="M 59.127464 136.44746 
L 139.302107 146.874553 
L 219.476751 185.854909 
" clip-path="url(#paa6ce20cd8)" style="fill: none; stroke: #5b8ecf; stroke-width: 1.8; stroke-linecap: square"/>
    <defs>
     <path id="me0ba559f32" d="M -3 3 
L 3 3 
L 3 -3 
L -3 -3 
z
" style="stroke: #5b8ecf; stroke-linejoin: miter"/>
    </defs>
    <g clip-path="url(#paa6ce20cd8)">
     <use xlink:href="#me0ba559f32" x="59.127464" y="136.44746" style="fill: #5b8ecf; stroke: #5b8ecf; stroke-linejoin: miter"/>
     <use xlink:href="#me0ba559f32" x="139.302107" y="146.874553" style="fill: #5b8ecf; stroke: #5b8ecf; stroke-linejoin: miter"/>
     <use xlink:href="#me0ba559f32" x="219.476751" y="185.854909" style="fill: #5b8ecf; stroke: #5b8ecf; stroke-linejoin: miter"/>
    </g>
   </g>
   <g id="line2d_14">
    <path d="M 59.127464 135.906861 
L 139.302107 109.44131 
L 219.476751 163.354575 
" clip-path="url(#paa6ce20cd8)" style="fill: none; stroke-dasharray: 4.44,1.92; stroke-dashoffset: 0; stroke: #c0392b; stroke-opacity: 0.7; stroke-width: 1.2"/>
    <defs>
     <path id="m64f6412ce4" d="M 0 -2.5 
L -2.5 2.5 
L 2.5 2.5 
z
" style="stroke: #c0392b; stroke-opacity: 0.7; stroke-linejoin: miter"/>
    </defs>
    <g clip-path="url(#paa6ce20cd8)">
     <use xlink:href="#m64f6412ce4" x="59.127464" y="135.906861" style="fill: #c0392b; fill-opacity: 0.7; stroke: #c0392b; stroke-opacity: 0.7; stroke-linejoin: miter"/>
     <use xlink:href="#m64f6412ce4" x="139.302107" y="109.44131" style="fill: #c0392b; fill-opacity: 0.7; stroke: #c0392b; stroke-opacity: 0.7; stroke-linejoin: miter"/>
     <use xlink:href="#m64f6412ce4" x="219.476751" y="163.354575" style="fill: #c0392b; fill-opacity: 0.7; stroke: #c0392b; stroke-opacity: 0.7; stroke-linejoin: miter"/>
    </g>
   </g>
   <g id="line2d_15">
    <path d="M 59.127464 45.993091 
L 139.302107 77.169899 
L 219.476751 151.472256 
" clip-path="url(#paa6ce20cd8)" style="fill: none; stroke-dasharray: 4.44,1.92; stroke-dashoffset: 0; stroke: #2980b9; stroke-opacity: 0.7; stroke-width: 1.2"/>
    <defs>
     <path id="mc3d6ae5407" d="M -0 2.5 
L 2.5 -2.5 
L -2.5 -2.5 
z
" style="stroke: #2980b9; stroke-opacity: 0.7; stroke-linejoin: miter"/>
    </defs>
    <g clip-path="url(#paa6ce20cd8)">
     <use xlink:href="#mc3d6ae5407" x="59.127464" y="45.993091" style="fill: #2980b9; fill-opacity: 0.7; stroke: #2980b9; stroke-opacity: 0.7; stroke-linejoin: miter"/>
     <use xlink:href="#mc3d6ae5407" x="139.302107" y="77.169899" style="fill: #2980b9; fill-opacity: 0.7; stroke: #2980b9; stroke-opacity: 0.7; stroke-linejoin: miter"/>
     <use xlink:href="#mc3d6ae5407" x="219.476751" y="151.472256" style="fill: #2980b9; fill-opacity: 0.7; stroke: #2980b9; stroke-opacity: 0.7; stroke-linejoin: miter"/>
    </g>
   </g>
   <g id="patch_3">
    <path d="M 51.11 192.848 
L 51.11 39 
" style="fill: none; stroke: #000000; stroke-width: 0.8; stroke-linejoin: miter; stroke-linecap: square"/>
   </g>
   <g id="patch_4">
    <path d="M 51.11 192.848 
L 227.494215 192.848 
" style="fill: none; stroke: #000000; stroke-width: 0.8; stroke-linejoin: miter; stroke-linecap: square"/>
   </g>
   <g id="patch_5">
    <path d="M 61.128894 46.6924 
Q 139.304933 46.6924 216.139331 46.6924 
" style="fill: none; stroke: #888888; stroke-width: 1.2; stroke-linecap: round"/>
    <path d="M 212.139331 44.6924 
L 216.139331 46.6924 
L 212.139331 48.6924 
" style="fill: none; stroke: #888888; stroke-width: 1.2; stroke-linecap: round"/>
   </g>
   <g id="text_13">
    <!-- D1R vs D2R along -->
    <g transform="translate(96.735701 23.415453) scale(0.085 -0.085)">
     <defs>
      <path id="DejaVuSans-Bold-44" d="M 1791 3756 
L 1791 909 
L 2222 909 
Q 2959 909 3348 1275 
Q 3738 1641 3738 2338 
Q 3738 3031 3350 3393 
Q 2963 3756 2222 3756 
L 1791 3756 
z
M 588 4666 
L 1856 4666 
Q 2919 4666 3439 4514 
Q 3959 4363 4331 4000 
Q 4659 3684 4818 3271 
Q 4978 2859 4978 2338 
Q 4978 1809 4818 1395 
Q 4659 981 4331 666 
Q 3956 303 3431 151 
Q 2906 0 1856 0 
L 588 0 
L 588 4666 
z
" transform="scale(0.015625)"/>
      <path id="DejaVuSans-Bold-31" d="M 750 831 
L 1813 831 
L 1813 3847 
L 722 3622 
L 722 4441 
L 1806 4666 
L 2950 4666 
L 2950 831 
L 4013 831 
L 4013 0 
L 750 0 
L 750 831 
z
" transform="scale(0.015625)"/>
      <path id="DejaVuSans-Bold-52" d="M 2297 2597 
Q 2675 2597 2839 2737 
Q 3003 2878 3003 3200 
Q 3003 3519 2839 3656 
Q 2675 3794 2297 3794 
L 1791 3794 
L 1791 2597 
L 2297 2597 
z
M 1791 1766 
L 1791 0 
L 588 0 
L 588 4666 
L 2425 4666 
Q 3347 4666 3776 4356 
Q 4206 4047 4206 3378 
Q 4206 2916 3982 2619 
Q 3759 2322 3309 2181 
Q 3556 2125 3751 1926 
Q 3947 1728 4147 1325 
L 4800 0 
L 3519 0 
L 2950 1159 
Q 2778 1509 2601 1637 
Q 2425 1766 2131 1766 
L 1791 1766 
z
" transform="scale(0.015625)"/>
      <path id="DejaVuSans-Bold-20" transform="scale(0.015625)"/>
      <path id="DejaVuSans-Bold-76" d="M 97 3500 
L 1216 3500 
L 2088 1081 
L 2956 3500 
L 4078 3500 
L 2700 0 
L 1472 0 
L 97 3500 
z
" transform="scale(0.015625)"/>
      <path id="DejaVuSans-Bold-73" d="M 3272 3391 
L 3272 2541 
Q 2913 2691 2578 2766 
Q 2244 2841 1947 2841 
Q 1628 2841 1473 2761 
Q 1319 2681 1319 2516 
Q 1319 2381 1436 2309 
Q 1553 2238 1856 2203 
L 2053 2175 
Q 2913 2066 3209 1816 
Q 3506 1566 3506 1031 
Q 3506 472 3093 190 
Q 2681 -91 1863 -91 
Q 1516 -91 1145 -36 
Q 775 19 384 128 
L 384 978 
Q 719 816 1070 734 
Q 1422 653 1784 653 
Q 2113 653 2278 743 
Q 2444 834 2444 1013 
Q 2444 1163 2330 1236 
Q 2216 1309 1875 1350 
L 1678 1375 
Q 931 1469 631 1722 
Q 331 1975 331 2491 
Q 331 3047 712 3315 
Q 1094 3584 1881 3584 
Q 2191 3584 2531 3537 
Q 2872 3491 3272 3391 
z
" transform="scale(0.015625)"/>
      <path id="DejaVuSans-Bold-32" d="M 1844 884 
L 3897 884 
L 3897 0 
L 506 0 
L 506 884 
L 2209 2388 
Q 2438 2594 2547 2791 
Q 2656 2988 2656 3200 
Q 2656 3528 2436 3728 
Q 2216 3928 1850 3928 
Q 1569 3928 1234 3808 
Q 900 3688 519 3450 
L 519 4475 
Q 925 4609 1322 4679 
Q 1719 4750 2100 4750 
Q 2938 4750 3402 4381 
Q 3866 4013 3866 3353 
Q 3866 2972 3669 2642 
Q 3472 2313 2841 1759 
L 1844 884 
z
" transform="scale(0.015625)"/>
      <path id="DejaVuSans-Bold-61" d="M 2106 1575 
Q 1756 1575 1579 1456 
Q 1403 1338 1403 1106 
Q 1403 894 1545 773 
Q 1688 653 1941 653 
Q 2256 653 2472 879 
Q 2688 1106 2688 1447 
L 2688 1575 
L 2106 1575 
z
M 3816 1997 
L 3816 0 
L 2688 0 
L 2688 519 
Q 2463 200 2181 54 
Q 1900 -91 1497 -91 
Q 953 -91 614 226 
Q 275 544 275 1050 
Q 275 1666 698 1953 
Q 1122 2241 2028 2241 
L 2688 2241 
L 2688 2328 
Q 2688 2594 2478 2717 
Q 2269 2841 1825 2841 
Q 1466 2841 1156 2769 
Q 847 2697 581 2553 
L 581 3406 
Q 941 3494 1303 3539 
Q 1666 3584 2028 3584 
Q 2975 3584 3395 3211 
Q 3816 2838 3816 1997 
z
" transform="scale(0.015625)"/>
      <path id="DejaVuSans-Bold-6c" d="M 538 4863 
L 1656 4863 
L 1656 0 
L 538 0 
L 538 4863 
z
" transform="scale(0.015625)"/>
      <path id="DejaVuSans-Bold-6f" d="M 2203 2784 
Q 1831 2784 1636 2517 
Q 1441 2250 1441 1747 
Q 1441 1244 1636 976 
Q 1831 709 2203 709 
Q 2569 709 2762 976 
Q 2956 1244 2956 1747 
Q 2956 2250 2762 2517 
Q 2569 2784 2203 2784 
z
M 2203 3584 
Q 3106 3584 3614 3096 
Q 4122 2609 4122 1747 
Q 4122 884 3614 396 
Q 3106 -91 2203 -91 
Q 1297 -91 786 396 
Q 275 884 275 1747 
Q 275 2609 786 3096 
Q 1297 3584 2203 3584 
z
" transform="scale(0.015625)"/>
      <path id="DejaVuSans-Bold-6e" d="M 4056 2131 
L 4056 0 
L 2931 0 
L 2931 347 
L 2931 1631 
Q 2931 2084 2911 2256 
Q 2891 2428 2841 2509 
Q 2775 2619 2662 2680 
Q 2550 2741 2406 2741 
Q 2056 2741 1856 2470 
Q 1656 2200 1656 1722 
L 1656 0 
L 538 0 
L 538 3500 
L 1656 3500 
L 1656 2988 
Q 1909 3294 2193 3439 
Q 2478 3584 2822 3584 
Q 3428 3584 3742 3212 
Q 4056 2841 4056 2131 
z
" transform="scale(0.015625)"/>
      <path id="DejaVuSans-Bold-67" d="M 2919 594 
Q 2688 288 2409 144 
Q 2131 0 1766 0 
Q 1125 0 706 504 
Q 288 1009 288 1791 
Q 288 2575 706 3076 
Q 1125 3578 1766 3578 
Q 2131 3578 2409 3434 
Q 2688 3291 2919 2981 
L 2919 3500 
L 4044 3500 
L 4044 353 
Q 4044 -491 3511 -936 
Q 2978 -1381 1966 -1381 
Q 1638 -1381 1331 -1331 
Q 1025 -1281 716 -1178 
L 716 -306 
Q 1009 -475 1290 -558 
Q 1572 -641 1856 -641 
Q 2406 -641 2662 -400 
Q 2919 -159 2919 353 
L 2919 594 
z
M 2181 2772 
Q 1834 2772 1640 2515 
Q 1447 2259 1447 1791 
Q 1447 1309 1634 1061 
Q 1822 813 2181 813 
Q 2531 813 2725 1069 
Q 2919 1325 2919 1791 
Q 2919 2259 2725 2515 
Q 2531 2772 2181 2772 
z
" transform="scale(0.015625)"/>
     </defs>
     <use xlink:href="#DejaVuSans-Bold-44"/>
     <use xlink:href="#DejaVuSans-Bold-31" x="83.007812"/>
     <use xlink:href="#DejaVuSans-Bold-52" x="152.587891"/>
     <use xlink:href="#DejaVuSans-Bold-20" x="229.589844"/>
     <use xlink:href="#DejaVuSans-Bold-76" x="264.404297"/>
     <use xlink:href="#DejaVuSans-Bold-73" x="329.589844"/>
     <use xlink:href="#DejaVuSans-Bold-20" x="389.111328"/>
     <use xlink:href="#DejaVuSans-Bold-44" x="423.925781"/>
     <use xlink:href="#DejaVuSans-Bold-32" x="506.933594"/>
     <use xlink:href="#DejaVuSans-Bold-52" x="576.513672"/>
     <use xlink:href="#DejaVuSans-Bold-20" x="653.515625"/>
     <use xlink:href="#DejaVuSans-Bold-61" x="688.330078"/>
     <use xlink:href="#DejaVuSans-Bold-6c" x="755.810547"/>
     <use xlink:href="#DejaVuSans-Bold-6f" x="790.087891"/>
     <use xlink:href="#DejaVuSans-Bold-6e" x="858.789062"/>
     <use xlink:href="#DejaVuSans-Bold-67" x="929.980469"/>
    </g>
    <!-- dorsal→ventral axis -->
    <g transform="translate(92.622498 33) scale(0.085 -0.085)">
     <defs>
      <path id="DejaVuSans-Bold-64" d="M 2919 2988 
L 2919 4863 
L 4044 4863 
L 4044 0 
L 2919 0 
L 2919 506 
Q 2688 197 2409 53 
Q 2131 -91 1766 -91 
Q 1119 -91 703 423 
Q 288 938 288 1747 
Q 288 2556 703 3070 
Q 1119 3584 1766 3584 
Q 2128 3584 2408 3439 
Q 2688 3294 2919 2988 
z
M 2181 722 
Q 2541 722 2730 984 
Q 2919 1247 2919 1747 
Q 2919 2247 2730 2509 
Q 2541 2772 2181 2772 
Q 1825 2772 1636 2509 
Q 1447 2247 1447 1747 
Q 1447 1247 1636 984 
Q 1825 722 2181 722 
z
" transform="scale(0.015625)"/>
      <path id="DejaVuSans-Bold-72" d="M 3138 2547 
Q 2991 2616 2845 2648 
Q 2700 2681 2553 2681 
Q 2122 2681 1889 2404 
Q 1656 2128 1656 1613 
L 1656 0 
L 538 0 
L 538 3500 
L 1656 3500 
L 1656 2925 
Q 1872 3269 2151 3426 
Q 2431 3584 2822 3584 
Q 2878 3584 2943 3579 
Q 3009 3575 3134 3559 
L 3138 2547 
z
" transform="scale(0.015625)"/>
      <path id="DejaVuSans-Bold-2192" d="M 5050 2225 
L 5050 1788 
L 3822 559 
L 3369 1013 
L 3988 1631 
L 366 1631 
L 366 2381 
L 3988 2381 
L 3369 3000 
L 3822 3453 
L 5050 2225 
z
" transform="scale(0.015625)"/>
      <path id="DejaVuSans-Bold-65" d="M 4031 1759 
L 4031 1441 
L 1416 1441 
Q 1456 1047 1700 850 
Q 1944 653 2381 653 
Q 2734 653 3104 758 
Q 3475 863 3866 1075 
L 3866 213 
Q 3469 63 3072 -14 
Q 2675 -91 2278 -91 
Q 1328 -91 801 392 
Q 275 875 275 1747 
Q 275 2603 792 3093 
Q 1309 3584 2216 3584 
Q 3041 3584 3536 3087 
Q 4031 2591 4031 1759 
z
M 2881 2131 
Q 2881 2450 2695 2645 
Q 2509 2841 2209 2841 
Q 1884 2841 1681 2658 
Q 1478 2475 1428 2131 
L 2881 2131 
z
" transform="scale(0.015625)"/>
      <path id="DejaVuSans-Bold-74" d="M 1759 4494 
L 1759 3500 
L 2913 3500 
L 2913 2700 
L 1759 2700 
L 1759 1216 
Q 1759 972 1856 886 
Q 1953 800 2241 800 
L 2816 800 
L 2816 0 
L 1856 0 
Q 1194 0 917 276 
Q 641 553 641 1216 
L 641 2700 
L 84 2700 
L 84 3500 
L 641 3500 
L 641 4494 
L 1759 4494 
z
" transform="scale(0.015625)"/>
      <path id="DejaVuSans-Bold-78" d="M 1422 1791 
L 159 3500 
L 1344 3500 
L 2059 2463 
L 2784 3500 
L 3969 3500 
L 2706 1797 
L 4031 0 
L 2847 0 
L 2059 1106 
L 1281 0 
L 97 0 
L 1422 1791 
z
" transform="scale(0.015625)"/>
      <path id="DejaVuSans-Bold-69" d="M 538 3500 
L 1656 3500 
L 1656 0 
L 538 0 
L 538 3500 
z
M 538 4863 
L 1656 4863 
L 1656 3950 
L 538 3950 
L 538 4863 
z
" transform="scale(0.015625)"/>
     </defs>
     <use xlink:href="#DejaVuSans-Bold-64"/>
     <use xlink:href="#DejaVuSans-Bold-6f" x="71.582031"/>
     <use xlink:href="#DejaVuSans-Bold-72" x="140.283203"/>
     <use xlink:href="#DejaVuSans-Bold-73" x="189.599609"/>
     <use xlink:href="#DejaVuSans-Bold-61" x="249.121094"/>
     <use xlink:href="#DejaVuSans-Bold-6c" x="316.601562"/>
     <use xlink:href="#DejaVuSans-Bold-2192" x="350.878906"/>
     <use xlink:href="#DejaVuSans-Bold-76" x="434.667969"/>
     <use xlink:href="#DejaVuSans-Bold-65" x="499.853516"/>
     <use xlink:href="#DejaVuSans-Bold-6e" x="567.675781"/>
     <use xlink:href="#DejaVuSans-Bold-74" x="638.867188"/>
     <use xlink:href="#DejaVuSans-Bold-72" x="686.669922"/>
     <use xlink:href="#DejaVuSans-Bold-61" x="735.986328"/>
     <use xlink:href="#DejaVuSans-Bold-6c" x="803.466797"/>
     <use xlink:href="#DejaVuSans-Bold-20" x="837.744141"/>
     <use xlink:href="#DejaVuSans-Bold-61" x="872.558594"/>
     <use xlink:href="#DejaVuSans-Bold-78" x="940.039062"/>
     <use xlink:href="#DejaVuSans-Bold-69" x="1004.541016"/>
     <use xlink:href="#DejaVuSans-Bold-73" x="1038.818359"/>
    </g>
   </g>
   <g id="legend_1">
    <g id="patch_6">
     <path d="M 55.87 189.448 
L 163.519313 189.448 
Q 164.879313 189.448 164.879313 188.088 
L 164.879313 148.8435 
Q 164.879313 147.4835 163.519313 147.4835 
L 55.87 147.4835 
Q 54.51 147.4835 54.51 148.8435 
L 54.51 188.088 
Q 54.51 189.448 55.87 189.448 
z
" style="fill: #ffffff; opacity: 0.9; stroke: #cccccc; stroke-linejoin: miter"/>
    </g>
    <g id="line2d_16">
     <path d="M 57.23 152.990438 
L 64.03 152.990438 
L 70.83 152.990438 
" style="fill: none; stroke: #e07b39; stroke-width: 1.8; stroke-linecap: square"/>
     <g>
      <use xlink:href="#m8df770bf8c" x="64.03" y="152.990438" style="fill: #e07b39; stroke: #e07b39"/>
     </g>
    </g>
    <g id="text_14">
     <!-- Drd1 (D1R, direct path) -->
     <g transform="translate(76.27 155.370438) scale(0.068 -0.068)">
      <defs>
       <path id="DejaVuSans-44" d="M 1259 4147 
L 1259 519 
L 2022 519 
Q 2988 519 3436 956 
Q 3884 1394 3884 2338 
Q 3884 3275 3436 3711 
Q 2988 4147 2022 4147 
L 1259 4147 
z
M 628 4666 
L 1925 4666 
Q 3281 4666 3915 4102 
Q 4550 3538 4550 2338 
Q 4550 1131 3912 565 
Q 3275 0 1925 0 
L 628 0 
L 628 4666 
z
" transform="scale(0.015625)"/>
       <path id="DejaVuSans-52" d="M 2841 2188 
Q 3044 2119 3236 1894 
Q 3428 1669 3622 1275 
L 4263 0 
L 3584 0 
L 2988 1197 
Q 2756 1666 2539 1819 
Q 2322 1972 1947 1972 
L 1259 1972 
L 1259 0 
L 628 0 
L 628 4666 
L 2053 4666 
Q 2853 4666 3247 4331 
Q 3641 3997 3641 3322 
Q 3641 2881 3436 2590 
Q 3231 2300 2841 2188 
z
M 1259 4147 
L 1259 2491 
L 2053 2491 
Q 2509 2491 2742 2702 
Q 2975 2913 2975 3322 
Q 2975 3731 2742 3939 
Q 2509 4147 2053 4147 
L 1259 4147 
z
" transform="scale(0.015625)"/>
       <path id="DejaVuSans-2c" d="M 750 794 
L 1409 794 
L 1409 256 
L 897 -744 
L 494 -744 
L 750 256 
L 750 794 
z
" transform="scale(0.015625)"/>
       <path id="DejaVuSans-68" d="M 3513 2113 
L 3513 0 
L 2938 0 
L 2938 2094 
Q 2938 2591 2744 2837 
Q 2550 3084 2163 3084 
Q 1697 3084 1428 2787 
Q 1159 2491 1159 1978 
L 1159 0 
L 581 0 
L 581 4863 
L 1159 4863 
L 1159 2956 
Q 1366 3272 1645 3428 
Q 1925 3584 2291 3584 
Q 2894 3584 3203 3211 
Q 3513 2838 3513 2113 
z
" transform="scale(0.015625)"/>
      </defs>
      <use xlink:href="#DejaVuSans-44"/>
      <use xlink:href="#DejaVuSans-72" x="77.001953"/>
      <use xlink:href="#DejaVuSans-64" x="116.365234"/>
      <use xlink:href="#DejaVuSans-31" x="179.841797"/>
      <use xlink:href="#DejaVuSans-20" x="243.464844"/>
      <use xlink:href="#DejaVuSans-28" x="275.251953"/>
      <use xlink:href="#DejaVuSans-44" x="314.265625"/>
      <use xlink:href="#DejaVuSans-31" x="391.267578"/>
      <use xlink:href="#DejaVuSans-52" x="454.890625"/>
      <use xlink:href="#DejaVuSans-2c" x="524.373047"/>
      <use xlink:href="#DejaVuSans-20" x="556.160156"/>
      <use xlink:href="#DejaVuSans-64" x="587.947266"/>
      <use xlink:href="#DejaVuSans-69" x="651.423828"/>
      <use xlink:href="#DejaVuSans-72" x="679.207031"/>
      <use xlink:href="#DejaVuSans-65" x="718.070312"/>
      <use xlink:href="#DejaVuSans-63" x="779.59375"/>
      <use xlink:href="#DejaVuSans-74" x="834.574219"/>
      <use xlink:href="#DejaVuSans-20" x="873.783203"/>
      <use xlink:href="#DejaVuSans-70" x="905.570312"/>
      <use xlink:href="#DejaVuSans-61" x="969.046875"/>
      <use xlink:href="#DejaVuSans-74" x="1030.326172"/>
      <use xlink:href="#DejaVuSans-68" x="1069.535156"/>
      <use xlink:href="#DejaVuSans-29" x="1132.914062"/>
     </g>
    </g>
    <g id="line2d_17">
     <path d="M 57.23 162.971563 
L 64.03 162.971563 
L 70.83 162.971563 
" style="fill: none; stroke: #5b8ecf; stroke-width: 1.8; stroke-linecap: square"/>
     <g>
      <use xlink:href="#me0ba559f32" x="64.03" y="162.971563" style="fill: #5b8ecf; stroke: #5b8ecf; stroke-linejoin: miter"/>
     </g>
    </g>
    <g id="text_15">
     <!-- Drd2 (D2R, indirect path) -->
     <g transform="translate(76.27 165.351562) scale(0.068 -0.068)">
      <use xlink:href="#DejaVuSans-44"/>
      <use xlink:href="#DejaVuSans-72" x="77.001953"/>
      <use xlink:href="#DejaVuSans-64" x="116.365234"/>
      <use xlink:href="#DejaVuSans-32" x="179.841797"/>
      <use xlink:href="#DejaVuSans-20" x="243.464844"/>
      <use xlink:href="#DejaVuSans-28" x="275.251953"/>
      <use xlink:href="#DejaVuSans-44" x="314.265625"/>
      <use xlink:href="#DejaVuSans-32" x="391.267578"/>
      <use xlink:href="#DejaVuSans-52" x="454.890625"/>
      <use xlink:href="#DejaVuSans-2c" x="524.373047"/>
      <use xlink:href="#DejaVuSans-20" x="556.160156"/>
      <use xlink:href="#DejaVuSans-69" x="587.947266"/>
      <use xlink:href="#DejaVuSans-6e" x="615.730469"/>
      <use xlink:href="#DejaVuSans-64" x="679.109375"/>
      <use xlink:href="#DejaVuSans-69" x="742.585938"/>
      <use xlink:href="#DejaVuSans-72" x="770.369141"/>
      <use xlink:href="#DejaVuSans-65" x="809.232422"/>
      <use xlink:href="#DejaVuSans-63" x="870.755859"/>
      <use xlink:href="#DejaVuSans-74" x="925.736328"/>
      <use xlink:href="#DejaVuSans-20" x="964.945312"/>
      <use xlink:href="#DejaVuSans-70" x="996.732422"/>
      <use xlink:href="#DejaVuSans-61" x="1060.208984"/>
      <use xlink:href="#DejaVuSans-74" x="1121.488281"/>
      <use xlink:href="#DejaVuSans-68" x="1160.697266"/>
      <use xlink:href="#DejaVuSans-29" x="1224.076172"/>
     </g>
    </g>
    <g id="line2d_18">
     <path d="M 57.23 172.952688 
L 64.03 172.952688 
L 70.83 172.952688 
" style="fill: none; stroke-dasharray: 4.44,1.92; stroke-dashoffset: 0; stroke: #c0392b; stroke-opacity: 0.7; stroke-width: 1.2"/>
     <g>
      <use xlink:href="#m64f6412ce4" x="64.03" y="172.952688" style="fill: #c0392b; fill-opacity: 0.7; stroke: #c0392b; stroke-opacity: 0.7; stroke-linejoin: miter"/>
     </g>
    </g>
    <g id="text_16">
     <!-- Pdyn (dynorphin) -->
     <g transform="translate(76.27 175.332688) scale(0.068 -0.068)">
      <defs>
       <path id="DejaVuSans-50" d="M 1259 4147 
L 1259 2394 
L 2053 2394 
Q 2494 2394 2734 2622 
Q 2975 2850 2975 3272 
Q 2975 3691 2734 3919 
Q 2494 4147 2053 4147 
L 1259 4147 
z
M 628 4666 
L 2053 4666 
Q 2838 4666 3239 4311 
Q 3641 3956 3641 3272 
Q 3641 2581 3239 2228 
Q 2838 1875 2053 1875 
L 1259 1875 
L 1259 0 
L 628 0 
L 628 4666 
z
" transform="scale(0.015625)"/>
      </defs>
      <use xlink:href="#DejaVuSans-50"/>
      <use xlink:href="#DejaVuSans-64" x="60.302734"/>
      <use xlink:href="#DejaVuSans-79" x="123.779297"/>
      <use xlink:href="#DejaVuSans-6e" x="182.958984"/>
      <use xlink:href="#DejaVuSans-20" x="246.337891"/>
      <use xlink:href="#DejaVuSans-28" x="278.125"/>
      <use xlink:href="#DejaVuSans-64" x="317.138672"/>
      <use xlink:href="#DejaVuSans-79" x="380.615234"/>
      <use xlink:href="#DejaVuSans-6e" x="439.794922"/>
      <use xlink:href="#DejaVuSans-6f" x="503.173828"/>
      <use xlink:href="#DejaVuSans-72" x="564.355469"/>
      <use xlink:href="#DejaVuSans-70" x="605.46875"/>
      <use xlink:href="#DejaVuSans-68" x="668.945312"/>
      <use xlink:href="#DejaVuSans-69" x="732.324219"/>
      <use xlink:href="#DejaVuSans-6e" x="760.107422"/>
      <use xlink:href="#DejaVuSans-29" x="823.486328"/>
     </g>
    </g>
    <g id="line2d_19">
     <path d="M 57.23 182.933813 
L 64.03 182.933813 
L 70.83 182.933813 
" style="fill: none; stroke-dasharray: 4.44,1.92; stroke-dashoffset: 0; stroke: #2980b9; stroke-opacity: 0.7; stroke-width: 1.2"/>
     <g>
      <use xlink:href="#mc3d6ae5407" x="64.03" y="182.933813" style="fill: #2980b9; fill-opacity: 0.7; stroke: #2980b9; stroke-opacity: 0.7; stroke-linejoin: miter"/>
     </g>
    </g>
    <g id="text_17">
     <!-- Penk (enkephalin) -->
     <g transform="translate(76.27 185.313813) scale(0.068 -0.068)">
      <defs>
       <path id="DejaVuSans-6b" d="M 581 4863 
L 1159 4863 
L 1159 1991 
L 2875 3500 
L 3609 3500 
L 1753 1863 
L 3688 0 
L 2938 0 
L 1159 1709 
L 1159 0 
L 581 0 
L 581 4863 
z
" transform="scale(0.015625)"/>
      </defs>
      <use xlink:href="#DejaVuSans-50"/>
      <use xlink:href="#DejaVuSans-65" x="56.677734"/>
      <use xlink:href="#DejaVuSans-6e" x="118.201172"/>
      <use xlink:href="#DejaVuSans-6b" x="181.580078"/>
      <use xlink:href="#DejaVuSans-20" x="239.490234"/>
      <use xlink:href="#DejaVuSans-28" x="271.277344"/>
      <use xlink:href="#DejaVuSans-65" x="310.291016"/>
      <use xlink:href="#DejaVuSans-6e" x="371.814453"/>
      <use xlink:href="#DejaVuSans-6b" x="435.193359"/>
      <use xlink:href="#DejaVuSans-65" x="489.478516"/>
      <use xlink:href="#DejaVuSans-70" x="551.001953"/>
      <use xlink:href="#DejaVuSans-68" x="614.478516"/>
      <use xlink:href="#DejaVuSans-61" x="677.857422"/>
      <use xlink:href="#DejaVuSans-6c" x="739.136719"/>
      <use xlink:href="#DejaVuSans-69" x="766.919922"/>
      <use xlink:href="#DejaVuSans-6e" x="794.703125"/>
      <use xlink:href="#DejaVuSans-29" x="858.082031"/>
     </g>
    </g>
   </g>
  </g>
  <g id="axes_2">
   <g id="patch_7">
    <path d="M 294.299545 192.848 
L 470.68376 192.848 
L 470.68376 39 
L 294.299545 39 
z
" style="fill: #ffffff"/>
   </g>
   <g id="patch_8">
    <path d="M 302.31701 192.848 
L 336.90215 192.848 
L 336.90215 124.140307 
L 302.31701 124.140307 
z
" clip-path="url(#p91e3579a34)" style="fill: #5d8aa8; stroke: #ffffff; stroke-width: 0.6; stroke-linejoin: miter"/>
   </g>
   <g id="patch_9">
    <path d="M 365.199083 192.848 
L 399.784223 192.848 
L 399.784223 117.525185 
L 365.199083 117.525185 
z
" clip-path="url(#p91e3579a34)" style="fill: #5d8aa8; stroke: #ffffff; stroke-width: 0.6; stroke-linejoin: miter"/>
   </g>
   <g id="patch_10">
    <path d="M 428.081156 192.848 
L 462.666296 192.848 
L 462.666296 46.326095 
L 428.081156 46.326095 
z
" clip-path="url(#p91e3579a34)" style="fill: #c0392b; stroke: #ffffff; stroke-width: 0.6; stroke-linejoin: miter"/>
   </g>
   <g id="matplotlib.axis_3">
    <g id="xtick_4">
     <g id="line2d_20">
      <g>
       <use xlink:href="#m86dc47a376" x="319.60958" y="192.848" style="stroke: #000000; stroke-width: 0.8"/>
      </g>
     </g>
     <g id="text_18">
      <!-- Caudoputamen -->
      <g transform="translate(288.85708 205.92675) scale(0.08 -0.08)">
       <use xlink:href="#DejaVuSans-43"/>
       <use xlink:href="#DejaVuSans-61" x="69.824219"/>
       <use xlink:href="#DejaVuSans-75" x="131.103516"/>
       <use xlink:href="#DejaVuSans-64" x="194.482422"/>
       <use xlink:href="#DejaVuSans-6f" x="257.958984"/>
       <use xlink:href="#DejaVuSans-70" x="319.140625"/>
       <use xlink:href="#DejaVuSans-75" x="382.617188"/>
       <use xlink:href="#DejaVuSans-74" x="445.996094"/>
       <use xlink:href="#DejaVuSans-61" x="485.205078"/>
       <use xlink:href="#DejaVuSans-6d" x="546.484375"/>
       <use xlink:href="#DejaVuSans-65" x="643.896484"/>
       <use xlink:href="#DejaVuSans-6e" x="705.419922"/>
      </g>
      <!-- (dorsal) -->
      <g transform="translate(304.21083 214.885) scale(0.08 -0.08)">
       <use xlink:href="#DejaVuSans-28"/>
       <use xlink:href="#DejaVuSans-64" x="39.013672"/>
       <use xlink:href="#DejaVuSans-6f" x="102.490234"/>
       <use xlink:href="#DejaVuSans-72" x="163.671875"/>
       <use xlink:href="#DejaVuSans-73" x="204.785156"/>
       <use xlink:href="#DejaVuSans-61" x="256.884766"/>
       <use xlink:href="#DejaVuSans-6c" x="318.164062"/>
       <use xlink:href="#DejaVuSans-29" x="345.947266"/>
      </g>
     </g>
    </g>
    <g id="xtick_5">
     <g id="line2d_21">
      <g>
       <use xlink:href="#m86dc47a376" x="382.491653" y="192.848" style="stroke: #000000; stroke-width: 0.8"/>
      </g>
     </g>
     <g id="text_19">
      <!-- Accumbens -->
      <g transform="translate(359.376028 205.92675) scale(0.08 -0.08)">
       <use xlink:href="#DejaVuSans-41"/>
       <use xlink:href="#DejaVuSans-63" x="66.658203"/>
       <use xlink:href="#DejaVuSans-63" x="121.638672"/>
       <use xlink:href="#DejaVuSans-75" x="176.619141"/>
       <use xlink:href="#DejaVuSans-6d" x="239.998047"/>
       <use xlink:href="#DejaVuSans-62" x="337.410156"/>
       <use xlink:href="#DejaVuSans-65" x="400.886719"/>
       <use xlink:href="#DejaVuSans-6e" x="462.410156"/>
       <use xlink:href="#DejaVuSans-73" x="525.789062"/>
      </g>
      <!-- (ventral) -->
      <g transform="translate(365.231653 214.885) scale(0.08 -0.08)">
       <use xlink:href="#DejaVuSans-28"/>
       <use xlink:href="#DejaVuSans-76" x="39.013672"/>
       <use xlink:href="#DejaVuSans-65" x="98.193359"/>
       <use xlink:href="#DejaVuSans-6e" x="159.716797"/>
       <use xlink:href="#DejaVuSans-74" x="223.095703"/>
       <use xlink:href="#DejaVuSans-72" x="262.304688"/>
       <use xlink:href="#DejaVuSans-61" x="303.417969"/>
       <use xlink:href="#DejaVuSans-6c" x="364.697266"/>
       <use xlink:href="#DejaVuSans-29" x="392.480469"/>
      </g>
     </g>
    </g>
    <g id="xtick_6">
     <g id="line2d_22">
      <g>
       <use xlink:href="#m86dc47a376" x="445.373726" y="192.848" style="stroke: #000000; stroke-width: 0.8"/>
      </g>
     </g>
     <g id="text_20">
      <!-- Olf. tubercle -->
      <g transform="translate(421.023101 205.92675) scale(0.08 -0.08)">
       <use xlink:href="#DejaVuSans-4f"/>
       <use xlink:href="#DejaVuSans-6c" x="78.710938"/>
       <use xlink:href="#DejaVuSans-66" x="106.494141"/>
       <use xlink:href="#DejaVuSans-2e" x="134.449219"/>
       <use xlink:href="#DejaVuSans-20" x="166.236328"/>
       <use xlink:href="#DejaVuSans-74" x="198.023438"/>
       <use xlink:href="#DejaVuSans-75" x="237.232422"/>
       <use xlink:href="#DejaVuSans-62" x="300.611328"/>
       <use xlink:href="#DejaVuSans-65" x="364.087891"/>
       <use xlink:href="#DejaVuSans-72" x="425.611328"/>
       <use xlink:href="#DejaVuSans-63" x="464.474609"/>
       <use xlink:href="#DejaVuSans-6c" x="519.455078"/>
       <use xlink:href="#DejaVuSans-65" x="547.238281"/>
      </g>
      <!-- (most ventral) -->
      <g transform="translate(416.846851 214.885) scale(0.08 -0.08)">
       <use xlink:href="#DejaVuSans-28"/>
       <use xlink:href="#DejaVuSans-6d" x="39.013672"/>
       <use xlink:href="#DejaVuSans-6f" x="136.425781"/>
       <use xlink:href="#DejaVuSans-73" x="197.607422"/>
       <use xlink:href="#DejaVuSans-74" x="249.707031"/>
       <use xlink:href="#DejaVuSans-20" x="288.916016"/>
       <use xlink:href="#DejaVuSans-76" x="320.703125"/>
       <use xlink:href="#DejaVuSans-65" x="379.882812"/>
       <use xlink:href="#DejaVuSans-6e" x="441.40625"/>
       <use xlink:href="#DejaVuSans-74" x="504.785156"/>
       <use xlink:href="#DejaVuSans-72" x="543.994141"/>
       <use xlink:href="#DejaVuSans-61" x="585.107422"/>
       <use xlink:href="#DejaVuSans-6c" x="646.386719"/>
       <use xlink:href="#DejaVuSans-29" x="674.169922"/>
      </g>
     </g>
    </g>
   </g>
   <g id="matplotlib.axis_4">
    <g id="ytick_9">
     <g id="line2d_23">
      <g>
       <use xlink:href="#m050a7cfe24" x="294.299545" y="192.848" style="stroke: #000000; stroke-width: 0.8"/>
      </g>
     </g>
     <g id="text_21">
      <!-- 0.0 -->
      <g transform="translate(274.577045 195.887375) scale(0.08 -0.08)">
       <use xlink:href="#DejaVuSans-30"/>
       <use xlink:href="#DejaVuSans-2e" x="63.623047"/>
       <use xlink:href="#DejaVuSans-30" x="95.410156"/>
      </g>
     </g>
    </g>
    <g id="ytick_10">
     <g id="line2d_24">
      <g>
       <use xlink:href="#m050a7cfe24" x="294.299545" y="175.424374" style="stroke: #000000; stroke-width: 0.8"/>
      </g>
     </g>
     <g id="text_22">
      <!-- 0.5 -->
      <g transform="translate(274.577045 178.463749) scale(0.08 -0.08)">
       <use xlink:href="#DejaVuSans-30"/>
       <use xlink:href="#DejaVuSans-2e" x="63.623047"/>
       <use xlink:href="#DejaVuSans-35" x="95.410156"/>
      </g>
     </g>
    </g>
    <g id="ytick_11">
     <g id="line2d_25">
      <g>
       <use xlink:href="#m050a7cfe24" x="294.299545" y="158.000747" style="stroke: #000000; stroke-width: 0.8"/>
      </g>
     </g>
     <g id="text_23">
      <!-- 1.0 -->
      <g transform="translate(274.577045 161.040122) scale(0.08 -0.08)">
       <use xlink:href="#DejaVuSans-31"/>
       <use xlink:href="#DejaVuSans-2e" x="63.623047"/>
       <use xlink:href="#DejaVuSans-30" x="95.410156"/>
      </g>
     </g>
    </g>
    <g id="ytick_12">
     <g id="line2d_26">
      <g>
       <use xlink:href="#m050a7cfe24" x="294.299545" y="140.577121" style="stroke: #000000; stroke-width: 0.8"/>
      </g>
     </g>
     <g id="text_24">
      <!-- 1.5 -->
      <g transform="translate(274.577045 143.616496) scale(0.08 -0.08)">
       <use xlink:href="#DejaVuSans-31"/>
       <use xlink:href="#DejaVuSans-2e" x="63.623047"/>
       <use xlink:href="#DejaVuSans-35" x="95.410156"/>
      </g>
     </g>
    </g>
    <g id="ytick_13">
     <g id="line2d_27">
      <g>
       <use xlink:href="#m050a7cfe24" x="294.299545" y="123.153494" style="stroke: #000000; stroke-width: 0.8"/>
      </g>
     </g>
     <g id="text_25">
      <!-- 2.0 -->
      <g transform="translate(274.577045 126.192869) scale(0.08 -0.08)">
       <use xlink:href="#DejaVuSans-32"/>
       <use xlink:href="#DejaVuSans-2e" x="63.623047"/>
       <use xlink:href="#DejaVuSans-30" x="95.410156"/>
      </g>
     </g>
    </g>
    <g id="ytick_14">
     <g id="line2d_28">
      <g>
       <use xlink:href="#m050a7cfe24" x="294.299545" y="105.729868" style="stroke: #000000; stroke-width: 0.8"/>
      </g>
     </g>
     <g id="text_26">
      <!-- 2.5 -->
      <g transform="translate(274.577045 108.769243) scale(0.08 -0.08)">
       <use xlink:href="#DejaVuSans-32"/>
       <use xlink:href="#DejaVuSans-2e" x="63.623047"/>
       <use xlink:href="#DejaVuSans-35" x="95.410156"/>
      </g>
     </g>
    </g>
    <g id="ytick_15">
     <g id="line2d_29">
      <g>
       <use xlink:href="#m050a7cfe24" x="294.299545" y="88.306242" style="stroke: #000000; stroke-width: 0.8"/>
      </g>
     </g>
     <g id="text_27">
      <!-- 3.0 -->
      <g transform="translate(274.577045 91.345617) scale(0.08 -0.08)">
       <defs>
        <path id="DejaVuSans-33" d="M 2597 2516 
Q 3050 2419 3304 2112 
Q 3559 1806 3559 1356 
Q 3559 666 3084 287 
Q 2609 -91 1734 -91 
Q 1441 -91 1130 -33 
Q 819 25 488 141 
L 488 750 
Q 750 597 1062 519 
Q 1375 441 1716 441 
Q 2309 441 2620 675 
Q 2931 909 2931 1356 
Q 2931 1769 2642 2001 
Q 2353 2234 1838 2234 
L 1294 2234 
L 1294 2753 
L 1863 2753 
Q 2328 2753 2575 2939 
Q 2822 3125 2822 3475 
Q 2822 3834 2567 4026 
Q 2313 4219 1838 4219 
Q 1578 4219 1281 4162 
Q 984 4106 628 3988 
L 628 4550 
Q 988 4650 1302 4700 
Q 1616 4750 1894 4750 
Q 2613 4750 3031 4423 
Q 3450 4097 3450 3541 
Q 3450 3153 3228 2886 
Q 3006 2619 2597 2516 
z
" transform="scale(0.015625)"/>
       </defs>
       <use xlink:href="#DejaVuSans-33"/>
       <use xlink:href="#DejaVuSans-2e" x="63.623047"/>
       <use xlink:href="#DejaVuSans-30" x="95.410156"/>
      </g>
     </g>
    </g>
    <g id="ytick_16">
     <g id="line2d_30">
      <g>
       <use xlink:href="#m050a7cfe24" x="294.299545" y="70.882615" style="stroke: #000000; stroke-width: 0.8"/>
      </g>
     </g>
     <g id="text_28">
      <!-- 3.5 -->
      <g transform="translate(274.577045 73.92199) scale(0.08 -0.08)">
       <use xlink:href="#DejaVuSans-33"/>
       <use xlink:href="#DejaVuSans-2e" x="63.623047"/>
       <use xlink:href="#DejaVuSans-35" x="95.410156"/>
      </g>
     </g>
    </g>
    <g id="ytick_17">
     <g id="line2d_31">
      <g>
       <use xlink:href="#m050a7cfe24" x="294.299545" y="53.458989" style="stroke: #000000; stroke-width: 0.8"/>
      </g>
     </g>
     <g id="text_29">
      <!-- 4.0 -->
      <g transform="translate(274.577045 56.498364) scale(0.08 -0.08)">
       <defs>
        <path id="DejaVuSans-34" d="M 2419 4116 
L 825 1625 
L 2419 1625 
L 2419 4116 
z
M 2253 4666 
L 3047 4666 
L 3047 1625 
L 3713 1625 
L 3713 1100 
L 3047 1100 
L 3047 0 
L 2419 0 
L 2419 1100 
L 313 1100 
L 313 1709 
L 2253 4666 
z
" transform="scale(0.015625)"/>
       </defs>
       <use xlink:href="#DejaVuSans-34"/>
       <use xlink:href="#DejaVuSans-2e" x="63.623047"/>
       <use xlink:href="#DejaVuSans-30" x="95.410156"/>
      </g>
     </g>
    </g>
    <g id="text_30">
     <!-- Drd1 / Drd2 expression ratio -->
     <g transform="translate(268.913295 172.6315) rotate(-90) scale(0.08 -0.08)">
      <defs>
       <path id="DejaVuSans-2f" d="M 1625 4666 
L 2156 4666 
L 531 -594 
L 0 -594 
L 1625 4666 
z
" transform="scale(0.015625)"/>
      </defs>
      <use xlink:href="#DejaVuSans-44"/>
      <use xlink:href="#DejaVuSans-72" x="77.001953"/>
      <use xlink:href="#DejaVuSans-64" x="116.365234"/>
      <use xlink:href="#DejaVuSans-31" x="179.841797"/>
      <use xlink:href="#DejaVuSans-20" x="243.464844"/>
      <use xlink:href="#DejaVuSans-2f" x="275.251953"/>
      <use xlink:href="#DejaVuSans-20" x="308.943359"/>
      <use xlink:href="#DejaVuSans-44" x="340.730469"/>
      <use xlink:href="#DejaVuSans-72" x="417.732422"/>
      <use xlink:href="#DejaVuSans-64" x="457.095703"/>
      <use xlink:href="#DejaVuSans-32" x="520.572266"/>
      <use xlink:href="#DejaVuSans-20" x="584.195312"/>
      <use xlink:href="#DejaVuSans-65" x="615.982422"/>
      <use xlink:href="#DejaVuSans-78" x="675.755859"/>
      <use xlink:href="#DejaVuSans-70" x="734.935547"/>
      <use xlink:href="#DejaVuSans-72" x="798.412109"/>
      <use xlink:href="#DejaVuSans-65" x="837.275391"/>
      <use xlink:href="#DejaVuSans-73" x="898.798828"/>
      <use xlink:href="#DejaVuSans-73" x="950.898438"/>
      <use xlink:href="#DejaVuSans-69" x="1002.998047"/>
      <use xlink:href="#DejaVuSans-6f" x="1030.78125"/>
      <use xlink:href="#DejaVuSans-6e" x="1091.962891"/>
      <use xlink:href="#DejaVuSans-20" x="1155.341797"/>
      <use xlink:href="#DejaVuSans-72" x="1187.128906"/>
      <use xlink:href="#DejaVuSans-61" x="1228.242188"/>
      <use xlink:href="#DejaVuSans-74" x="1289.521484"/>
      <use xlink:href="#DejaVuSans-69" x="1328.730469"/>
      <use xlink:href="#DejaVuSans-6f" x="1356.513672"/>
     </g>
    </g>
   </g>
   <g id="patch_11">
    <path d="M 294.299545 192.848 
L 294.299545 39 
" style="fill: none; stroke: #000000; stroke-width: 0.8; stroke-linejoin: miter; stroke-linecap: square"/>
   </g>
   <g id="patch_12">
    <path d="M 294.299545 192.848 
L 470.68376 192.848 
" style="fill: none; stroke: #000000; stroke-width: 0.8; stroke-linejoin: miter; stroke-linecap: square"/>
   </g>
   <g id="text_31">
    <!-- 1.97 -->
    <g transform="translate(310.70333 121.779612) scale(0.08 -0.08)">
     <defs>
      <path id="DejaVuSans-39" d="M 703 97 
L 703 672 
Q 941 559 1184 500 
Q 1428 441 1663 441 
Q 2288 441 2617 861 
Q 2947 1281 2994 2138 
Q 2813 1869 2534 1725 
Q 2256 1581 1919 1581 
Q 1219 1581 811 2004 
Q 403 2428 403 3163 
Q 403 3881 828 4315 
Q 1253 4750 1959 4750 
Q 2769 4750 3195 4129 
Q 3622 3509 3622 2328 
Q 3622 1225 3098 567 
Q 2575 -91 1691 -91 
Q 1453 -91 1209 -44 
Q 966 3 703 97 
z
M 1959 2075 
Q 2384 2075 2632 2365 
Q 2881 2656 2881 3163 
Q 2881 3666 2632 3958 
Q 2384 4250 1959 4250 
Q 1534 4250 1286 3958 
Q 1038 3666 1038 3163 
Q 1038 2656 1286 2365 
Q 1534 2075 1959 2075 
z
" transform="scale(0.015625)"/>
     </defs>
     <use xlink:href="#DejaVuSans-31"/>
     <use xlink:href="#DejaVuSans-2e" x="63.623047"/>
     <use xlink:href="#DejaVuSans-39" x="95.410156"/>
     <use xlink:href="#DejaVuSans-37" x="159.033203"/>
    </g>
   </g>
   <g id="text_32">
    <!-- 2.16 -->
    <g transform="translate(373.585403 115.16449) scale(0.08 -0.08)">
     <defs>
      <path id="DejaVuSans-36" d="M 2113 2584 
Q 1688 2584 1439 2293 
Q 1191 2003 1191 1497 
Q 1191 994 1439 701 
Q 1688 409 2113 409 
Q 2538 409 2786 701 
Q 3034 994 3034 1497 
Q 3034 2003 2786 2293 
Q 2538 2584 2113 2584 
z
M 3366 4563 
L 3366 3988 
Q 3128 4100 2886 4159 
Q 2644 4219 2406 4219 
Q 1781 4219 1451 3797 
Q 1122 3375 1075 2522 
Q 1259 2794 1537 2939 
Q 1816 3084 2150 3084 
Q 2853 3084 3261 2657 
Q 3669 2231 3669 1497 
Q 3669 778 3244 343 
Q 2819 -91 2113 -91 
Q 1303 -91 875 529 
Q 447 1150 447 2328 
Q 447 3434 972 4092 
Q 1497 4750 2381 4750 
Q 2619 4750 2861 4703 
Q 3103 4656 3366 4563 
z
" transform="scale(0.015625)"/>
     </defs>
     <use xlink:href="#DejaVuSans-32"/>
     <use xlink:href="#DejaVuSans-2e" x="63.623047"/>
     <use xlink:href="#DejaVuSans-31" x="95.410156"/>
     <use xlink:href="#DejaVuSans-36" x="159.033203"/>
    </g>
   </g>
   <g id="text_33">
    <!-- 4.20 -->
    <g transform="translate(436.467476 43.9654) scale(0.08 -0.08)">
     <use xlink:href="#DejaVuSans-34"/>
     <use xlink:href="#DejaVuSans-2e" x="63.623047"/>
     <use xlink:href="#DejaVuSans-32" x="95.410156"/>
     <use xlink:href="#DejaVuSans-30" x="159.033203"/>
    </g>
   </g>
   <g id="text_34">
    <!-- Direct/indirect pathway balance -->
    <g transform="translate(305.892708 23.415453) scale(0.085 -0.085)">
     <defs>
      <path id="DejaVuSans-Bold-63" d="M 3366 3391 
L 3366 2478 
Q 3138 2634 2908 2709 
Q 2678 2784 2431 2784 
Q 1963 2784 1702 2511 
Q 1441 2238 1441 1747 
Q 1441 1256 1702 982 
Q 1963 709 2431 709 
Q 2694 709 2930 787 
Q 3166 866 3366 1019 
L 3366 103 
Q 3103 6 2833 -42 
Q 2563 -91 2291 -91 
Q 1344 -91 809 395 
Q 275 881 275 1747 
Q 275 2613 809 3098 
Q 1344 3584 2291 3584 
Q 2566 3584 2833 3536 
Q 3100 3488 3366 3391 
z
" transform="scale(0.015625)"/>
      <path id="DejaVuSans-Bold-2f" d="M 1644 4666 
L 2338 4666 
L 691 -594 
L 0 -594 
L 1644 4666 
z
" transform="scale(0.015625)"/>
      <path id="DejaVuSans-Bold-70" d="M 1656 506 
L 1656 -1331 
L 538 -1331 
L 538 3500 
L 1656 3500 
L 1656 2988 
Q 1888 3294 2169 3439 
Q 2450 3584 2816 3584 
Q 3463 3584 3878 3070 
Q 4294 2556 4294 1747 
Q 4294 938 3878 423 
Q 3463 -91 2816 -91 
Q 2450 -91 2169 54 
Q 1888 200 1656 506 
z
M 2400 2772 
Q 2041 2772 1848 2508 
Q 1656 2244 1656 1747 
Q 1656 1250 1848 986 
Q 2041 722 2400 722 
Q 2759 722 2948 984 
Q 3138 1247 3138 1747 
Q 3138 2247 2948 2509 
Q 2759 2772 2400 2772 
z
" transform="scale(0.015625)"/>
      <path id="DejaVuSans-Bold-68" d="M 4056 2131 
L 4056 0 
L 2931 0 
L 2931 347 
L 2931 1625 
Q 2931 2084 2911 2256 
Q 2891 2428 2841 2509 
Q 2775 2619 2662 2680 
Q 2550 2741 2406 2741 
Q 2056 2741 1856 2470 
Q 1656 2200 1656 1722 
L 1656 0 
L 538 0 
L 538 4863 
L 1656 4863 
L 1656 2988 
Q 1909 3294 2193 3439 
Q 2478 3584 2822 3584 
Q 3428 3584 3742 3212 
Q 4056 2841 4056 2131 
z
" transform="scale(0.015625)"/>
      <path id="DejaVuSans-Bold-77" d="M 225 3500 
L 1313 3500 
L 1900 1088 
L 2491 3500 
L 3425 3500 
L 4013 1113 
L 4603 3500 
L 5691 3500 
L 4769 0 
L 3547 0 
L 2956 2406 
L 2369 0 
L 1147 0 
L 225 3500 
z
" transform="scale(0.015625)"/>
      <path id="DejaVuSans-Bold-79" d="M 78 3500 
L 1197 3500 
L 2138 1125 
L 2938 3500 
L 4056 3500 
L 2584 -331 
Q 2363 -916 2067 -1148 
Q 1772 -1381 1288 -1381 
L 641 -1381 
L 641 -647 
L 991 -647 
Q 1275 -647 1404 -556 
Q 1534 -466 1606 -231 
L 1638 -134 
L 78 3500 
z
" transform="scale(0.015625)"/>
      <path id="DejaVuSans-Bold-62" d="M 2400 722 
Q 2759 722 2948 984 
Q 3138 1247 3138 1747 
Q 3138 2247 2948 2509 
Q 2759 2772 2400 2772 
Q 2041 2772 1848 2508 
Q 1656 2244 1656 1747 
Q 1656 1250 1848 986 
Q 2041 722 2400 722 
z
M 1656 2988 
Q 1888 3294 2169 3439 
Q 2450 3584 2816 3584 
Q 3463 3584 3878 3070 
Q 4294 2556 4294 1747 
Q 4294 938 3878 423 
Q 3463 -91 2816 -91 
Q 2450 -91 2169 54 
Q 1888 200 1656 506 
L 1656 0 
L 538 0 
L 538 4863 
L 1656 4863 
L 1656 2988 
z
" transform="scale(0.015625)"/>
     </defs>
     <use xlink:href="#DejaVuSans-Bold-44"/>
     <use xlink:href="#DejaVuSans-Bold-69" x="83.007812"/>
     <use xlink:href="#DejaVuSans-Bold-72" x="117.285156"/>
     <use xlink:href="#DejaVuSans-Bold-65" x="166.601562"/>
     <use xlink:href="#DejaVuSans-Bold-63" x="234.423828"/>
     <use xlink:href="#DejaVuSans-Bold-74" x="293.701172"/>
     <use xlink:href="#DejaVuSans-Bold-2f" x="341.503906"/>
     <use xlink:href="#DejaVuSans-Bold-69" x="378.027344"/>
     <use xlink:href="#DejaVuSans-Bold-6e" x="412.304688"/>
     <use xlink:href="#DejaVuSans-Bold-64" x="483.496094"/>
     <use xlink:href="#DejaVuSans-Bold-69" x="555.078125"/>
     <use xlink:href="#DejaVuSans-Bold-72" x="589.355469"/>
     <use xlink:href="#DejaVuSans-Bold-65" x="638.671875"/>
     <use xlink:href="#DejaVuSans-Bold-63" x="706.494141"/>
     <use xlink:href="#DejaVuSans-Bold-74" x="765.771484"/>
     <use xlink:href="#DejaVuSans-Bold-20" x="813.574219"/>
     <use xlink:href="#DejaVuSans-Bold-70" x="848.388672"/>
     <use xlink:href="#DejaVuSans-Bold-61" x="919.970703"/>
     <use xlink:href="#DejaVuSans-Bold-74" x="987.451172"/>
     <use xlink:href="#DejaVuSans-Bold-68" x="1035.253906"/>
     <use xlink:href="#DejaVuSans-Bold-77" x="1106.445312"/>
     <use xlink:href="#DejaVuSans-Bold-61" x="1198.828125"/>
     <use xlink:href="#DejaVuSans-Bold-79" x="1263.183594"/>
     <use xlink:href="#DejaVuSans-Bold-20" x="1328.369141"/>
     <use xlink:href="#DejaVuSans-Bold-62" x="1363.183594"/>
     <use xlink:href="#DejaVuSans-Bold-61" x="1434.765625"/>
     <use xlink:href="#DejaVuSans-Bold-6c" x="1502.246094"/>
     <use xlink:href="#DejaVuSans-Bold-61" x="1536.523438"/>
     <use xlink:href="#DejaVuSans-Bold-6e" x="1604.003906"/>
     <use xlink:href="#DejaVuSans-Bold-63" x="1675.195312"/>
     <use xlink:href="#DejaVuSans-Bold-65" x="1734.472656"/>
    </g>
    <!-- across striatal subregions -->
    <g transform="translate(320.183333 33) scale(0.085 -0.085)">
     <defs>
      <path id="DejaVuSans-Bold-75" d="M 500 1363 
L 500 3500 
L 1625 3500 
L 1625 3150 
Q 1625 2866 1622 2436 
Q 1619 2006 1619 1863 
Q 1619 1441 1641 1255 
Q 1663 1069 1716 984 
Q 1784 875 1895 815 
Q 2006 756 2150 756 
Q 2500 756 2700 1025 
Q 2900 1294 2900 1772 
L 2900 3500 
L 4019 3500 
L 4019 0 
L 2900 0 
L 2900 506 
Q 2647 200 2364 54 
Q 2081 -91 1741 -91 
Q 1134 -91 817 281 
Q 500 653 500 1363 
z
" transform="scale(0.015625)"/>
     </defs>
     <use xlink:href="#DejaVuSans-Bold-61"/>
     <use xlink:href="#DejaVuSans-Bold-63" x="67.480469"/>
     <use xlink:href="#DejaVuSans-Bold-72" x="126.757812"/>
     <use xlink:href="#DejaVuSans-Bold-6f" x="176.074219"/>
     <use xlink:href="#DejaVuSans-Bold-73" x="244.775391"/>
     <use xlink:href="#DejaVuSans-Bold-73" x="304.296875"/>
     <use xlink:href="#DejaVuSans-Bold-20" x="363.818359"/>
     <use xlink:href="#DejaVuSans-Bold-73" x="398.632812"/>
     <use xlink:href="#DejaVuSans-Bold-74" x="458.154297"/>
     <use xlink:href="#DejaVuSans-Bold-72" x="505.957031"/>
     <use xlink:href="#DejaVuSans-Bold-69" x="555.273438"/>
     <use xlink:href="#DejaVuSans-Bold-61" x="589.550781"/>
     <use xlink:href="#DejaVuSans-Bold-74" x="657.03125"/>
     <use xlink:href="#DejaVuSans-Bold-61" x="704.833984"/>
     <use xlink:href="#DejaVuSans-Bold-6c" x="772.314453"/>
     <use xlink:href="#DejaVuSans-Bold-20" x="806.591797"/>
     <use xlink:href="#DejaVuSans-Bold-73" x="841.40625"/>
     <use xlink:href="#DejaVuSans-Bold-75" x="900.927734"/>
     <use xlink:href="#DejaVuSans-Bold-62" x="972.119141"/>
     <use xlink:href="#DejaVuSans-Bold-72" x="1043.701172"/>
     <use xlink:href="#DejaVuSans-Bold-65" x="1093.017578"/>
     <use xlink:href="#DejaVuSans-Bold-67" x="1160.839844"/>
     <use xlink:href="#DejaVuSans-Bold-69" x="1232.421875"/>
     <use xlink:href="#DejaVuSans-Bold-6f" x="1266.699219"/>
     <use xlink:href="#DejaVuSans-Bold-6e" x="1335.400391"/>
     <use xlink:href="#DejaVuSans-Bold-73" x="1406.591797"/>
    </g>
   </g>
  </g>
 </g>
 <defs>
  <clipPath id="paa6ce20cd8">
   <rect x="51.11" y="39" width="176.384215" height="153.848"/>
  </clipPath>
  <clipPath id="p91e3579a34">
   <rect x="294.299545" y="39" width="176.384215" height="153.848"/>
  </clipPath>
 </defs>
</svg>
